<svg aria-hidden="true" style="position: absolute; width: 0; height: 0; overflow: hidden;" version="1.1" xmlns="http://www.w3.org/2000/svg" xmlns:xlink="http://www.w3.org/1999/xlink">
<defs>
<symbol id="icon-trubka" viewBox="0 0 32 32">
<path d="M29.81 30.571l1.369-6.012c0.119-0.437 0.060-0.853-0.178-1.25-0.199-0.397-0.496-0.695-0.893-0.893l-6.428-2.738c-0.397-0.159-0.794-0.198-1.191-0.119-0.397 0.119-0.734 0.337-1.012 0.655l-2.619 3.214c-2.064-1.032-3.909-2.361-5.536-3.988s-2.956-3.472-3.988-5.536l3.214-2.619c0.317-0.278 0.516-0.615 0.595-1.012 0.119-0.397 0.099-0.794-0.060-1.19l-2.738-6.429c-0.198-0.397-0.496-0.714-0.893-0.952-0.397-0.198-0.813-0.238-1.25-0.119l-6.012 1.369c-0.397 0.119-0.734 0.337-1.012 0.655-0.278 0.357-0.417 0.754-0.417 1.19 0 4.921 1.23 9.484 3.69 13.69 2.421 4.127 5.675 7.381 9.762 9.762 4.246 2.5 8.849 3.75 13.809 3.75 0.397 0 0.754-0.139 1.072-0.417 0.357-0.278 0.595-0.615 0.714-1.012zM2.667 4.798l5.952-1.369 2.738 6.429-4.345 3.512c1.429 3.095 3.075 5.575 4.94 7.44s4.345 3.512 7.441 4.941l3.512-4.345 6.429 2.738-1.369 5.952c-4.564 0-8.81-1.151-12.738-3.452-3.849-2.262-6.885-5.298-9.107-9.107-2.302-3.929-3.452-8.175-3.452-12.738z"></path>
</symbol>
<symbol id="icon-envelope" viewBox="0 0 43 32">
<path d="M38.667 0h-34.667c-1.111 0-2.056 0.389-2.833 1.167s-1.167 1.722-1.167 2.833v24c0 1.111 0.389 2.055 1.167 2.833s1.722 1.167 2.833 1.167h34.667c1.111 0 2.055-0.389 2.833-1.167s1.167-1.722 1.167-2.833v-24c0-1.111-0.389-2.056-1.167-2.833s-1.722-1.167-2.833-1.167zM4 2.667h34.667c0.389 0 0.694 0.139 0.917 0.417 0.278 0.222 0.417 0.528 0.417 0.917v3.417c-1.945 1.667-6.139 5.056-12.583 10.167l-0.834 0.667c-1.111 0.944-1.972 1.611-2.583 2-1.056 0.722-1.945 1.083-2.667 1.083s-1.611-0.361-2.667-1.083c-0.667-0.389-1.556-1.056-2.667-2l-0.75-0.667c-6.444-5.111-10.639-8.5-12.583-10.167v-3.417c0-0.389 0.111-0.694 0.333-0.917 0.278-0.278 0.611-0.417 1-0.417zM38.667 29.333h-34.667c-0.389 0-0.722-0.111-1-0.333-0.222-0.278-0.333-0.611-0.333-1v-17.083c1.944 1.556 5.583 4.472 10.917 8.75l0.833 0.667c1.278 1.111 2.333 1.917 3.167 2.417 1.389 0.833 2.639 1.25 3.75 1.25s2.361-0.417 3.75-1.25c0.778-0.5 1.833-1.306 3.167-2.417l0.833-0.667c5.333-4.278 8.972-7.194 10.917-8.75v17.083c0 0.389-0.139 0.722-0.417 1-0.222 0.222-0.528 0.333-0.917 0.333z"></path>
</symbol>
<symbol id="icon-location" viewBox="0 0 23 32">
<path d="M11.429 6.476c-1.587 0-2.937 0.556-4.048 1.667s-1.667 2.46-1.667 4.048c0 1.587 0.556 2.937 1.667 4.048s2.46 1.667 4.048 1.667 2.937-0.556 4.048-1.667c1.111-1.111 1.667-2.46 1.667-4.048s-0.556-2.937-1.667-4.048c-1.111-1.111-2.46-1.667-4.048-1.667zM11.429 16c-1.032 0-1.925-0.377-2.679-1.131s-1.131-1.647-1.131-2.679c0-1.032 0.377-1.925 1.131-2.679s1.647-1.131 2.679-1.131c1.032 0 1.925 0.377 2.679 1.131s1.131 1.647 1.131 2.679c0 1.032-0.377 1.925-1.131 2.679s-1.647 1.131-2.679 1.131zM11.429 0.762c-2.063 0-3.968 0.516-5.714 1.548s-3.135 2.421-4.167 4.167c-1.032 1.746-1.548 3.651-1.548 5.714 0 1.27 0.159 2.401 0.476 3.393 0.317 0.952 0.933 2.143 1.845 3.571 0.635 0.992 1.944 2.917 3.929 5.774l3.988 5.714c0.278 0.397 0.675 0.595 1.19 0.595s0.913-0.198 1.19-0.595l3.988-5.714c1.984-2.857 3.294-4.782 3.929-5.774 0.913-1.429 1.528-2.619 1.845-3.571 0.317-0.992 0.476-2.123 0.476-3.393 0-2.063-0.516-3.968-1.548-5.714s-2.421-3.135-4.167-4.167c-1.746-1.032-3.651-1.548-5.714-1.548zM11.429 28.976c-0.952-1.389-2.183-3.155-3.69-5.298-1.905-2.738-3.155-4.544-3.75-5.417-0.833-1.349-1.389-2.421-1.667-3.214-0.278-0.833-0.417-1.786-0.417-2.857 0-1.27 0.238-2.48 0.714-3.631s1.171-2.183 2.083-3.095c0.913-0.913 1.944-1.607 3.095-2.083s2.361-0.714 3.631-0.714c1.27 0 2.48 0.238 3.631 0.714s2.183 1.171 3.095 2.083c0.913 0.913 1.607 1.944 2.083 3.095s0.714 2.361 0.714 3.631c0 1.071-0.139 2.024-0.417 2.857-0.278 0.794-0.833 1.865-1.667 3.214-0.595 0.873-1.845 2.679-3.75 5.417l-3.69 5.298z"></path>
</symbol>
</defs>
</svg>
